<svg width="28" height="36" viewBox="0 0 28 36" fill="none" xmlns="http://www.w3.org/2000/svg">
<path id="takeAwayLogo" d="M1.91442 35.7496C0.97311 35.6116 0.2514 35.0177 0.0456914 34.2117C-0.0232773 33.9414 -0.0279252 34.0665 0.129007 31.969C0.161665 31.5325 0.207234 30.9098 0.230271 30.5852C0.266394 30.0762 0.342231 29.062 0.412873 28.1432C0.430663 27.9118 0.492767 27.0493 0.635619 25.05C0.657211 24.7478 0.78463 23.0078 0.918772 21.1834C1.05291 19.3591 1.22721 16.9872 1.30609 15.9128C1.38498 14.8383 1.49391 13.3548 1.54818 12.616C1.60244 11.8773 1.69334 10.6319 1.75019 9.84843C1.80703 9.06496 1.87226 8.344 1.89514 8.24632C2.00867 7.76157 2.41284 7.26196 2.89682 7.00808C3.4568 6.71433 3.4121 6.7197 5.49921 6.69558L7.38247 6.67382L7.4341 6.30752C7.83445 3.46679 9.74123 1.00721 12.1359 0.242621C13.1275 -0.0739749 14.3086 -0.0811145 15.3023 0.223481C16.706 0.653775 17.9628 1.63816 18.835 2.99045C19.4487 3.94209 19.9244 5.27714 20.0471 6.39285L20.078 6.67382L21.9635 6.69558C23.6442 6.71498 23.8731 6.72542 24.0719 6.7917C24.8546 7.05264 25.4177 7.5979 25.5684 8.24078C25.592 8.34151 25.6573 9.0558 25.7135 9.82808C25.9858 13.5688 26.2258 16.8483 26.2823 17.6018C26.3553 18.5748 26.7715 24.2441 26.8292 25.05C26.8508 25.3522 26.942 26.5976 27.0318 27.8176C27.1217 29.0376 27.2135 30.2921 27.2358 30.6055C27.2582 30.9189 27.3031 31.5325 27.3357 31.969C27.3683 32.4055 27.4146 33.0254 27.4385 33.3465C27.4707 33.7791 27.4699 33.9899 27.4353 34.1605C27.2932 34.8604 26.675 35.4564 25.8357 35.7027C25.6065 35.77 24.9156 35.7744 13.8743 35.7796C7.39801 35.7826 2.04806 35.7692 1.9144 35.7496H1.91442ZM11.8733 31.1484C12.0634 31.0912 12.3007 30.8692 12.3843 30.6701C12.453 30.5065 12.4561 29.9433 12.3963 28.4484C12.3775 27.9783 12.3042 26.1319 12.2333 24.3452L12.1045 21.0968L12.1987 20.9061C12.2749 20.752 12.3475 20.6827 12.5768 20.5453C13.1012 20.2312 13.4611 19.7315 13.5707 19.1656C13.6179 18.9218 13.6118 18.6921 13.4648 15.1831C13.4383 14.5491 13.4203 14.4748 13.2637 14.3512C13.0378 14.1728 12.6836 14.2904 12.6145 14.5666C12.6 14.6247 12.6186 15.4153 12.6559 16.3236C12.7182 17.843 12.7184 17.983 12.6582 18.0751C12.5591 18.2269 12.415 18.2667 12.2494 18.1878C12.043 18.0895 12.0238 17.9603 12.0337 16.7347C12.0384 16.1483 12.0394 15.4062 12.0359 15.0855L12.0294 14.5023L11.9109 14.3834C11.7729 14.2448 11.5408 14.2216 11.3854 14.3308C11.1832 14.473 11.1755 14.5483 11.1797 16.3388C11.1822 17.4296 11.1689 18.0311 11.1411 18.0833C11.0886 18.1818 10.9067 18.2472 10.7761 18.2145C10.7224 18.201 10.6426 18.1419 10.5988 18.083C10.52 17.9771 10.5199 17.9594 10.5904 16.3277C10.6296 15.4211 10.6505 14.6347 10.6368 14.58C10.5927 14.4039 10.4156 14.2644 10.2358 14.2644C10.0321 14.2644 9.79904 14.4744 9.79991 14.6572C9.80024 14.721 9.7612 15.7135 9.71321 16.8628C9.61636 19.1821 9.61607 19.1766 9.86119 19.6685C10.0507 20.0488 10.2336 20.2483 10.6369 20.5149C10.9211 20.7028 10.9976 20.7762 11.0624 20.9231C11.1495 21.1208 11.1571 20.7737 10.9532 25.9047C10.7748 30.3954 10.7741 30.4248 10.8466 30.6336C10.8753 30.7161 10.9671 30.8544 11.0507 30.9408C11.2753 31.1731 11.5557 31.2439 11.8732 31.1484H11.8733ZM17.3208 31.1192C17.5361 31.0201 17.6874 30.8608 17.7684 30.6478C17.8304 30.4849 17.8275 30.2355 17.7254 26.8968C17.6602 24.7664 17.6255 23.0404 17.6395 22.6283C17.6524 22.2477 17.6811 21.4602 17.7033 20.8782C17.7255 20.2962 17.7638 18.5962 17.7884 17.1005C17.8229 15.0031 17.8221 14.3677 17.7849 14.3227C17.6123 14.114 17.0772 14.4747 16.7015 15.0529C15.9943 16.1415 15.4451 18.6096 15.3193 21.2648C15.2838 22.0152 15.3006 22.1621 15.4428 22.3436C15.5819 22.521 15.748 22.5672 16.2471 22.5672H16.6964L16.6746 22.8013C16.6627 22.93 16.6341 23.3192 16.6111 23.6662C16.5881 24.0131 16.5343 24.8098 16.4916 25.4366C16.4488 26.0634 16.3543 27.4658 16.2815 28.553L16.1491 30.5297L16.2734 30.7508C16.4907 31.1375 16.9388 31.2951 17.3208 31.1192ZM8.52213 12.4692C9.03928 12.3355 9.43862 11.7401 9.38181 11.1875C9.29355 10.3292 8.41092 9.80662 7.64687 10.1603C7.20915 10.363 6.95525 10.7365 6.92742 11.2187C6.90647 11.5817 6.99665 11.8442 7.23306 12.1081C7.58579 12.5019 7.97459 12.6108 8.52213 12.4692ZM19.8254 12.4223C20.0814 12.3144 20.3941 11.9704 20.4845 11.6974C20.5778 11.4154 20.5528 11.0114 20.4259 10.7496C20.1004 10.078 19.2526 9.84118 18.6447 10.252C18.2634 10.5096 18.0388 10.9684 18.083 11.3991C18.1712 12.2561 19.0273 12.7588 19.8254 12.4223ZM18.6238 6.43979C18.5941 6.14856 18.4314 5.44616 18.3103 5.08651C18.163 4.64871 17.6734 3.71224 17.4037 3.35219C16.3222 1.90834 14.849 1.17691 13.3161 1.32271C11.6607 1.48015 10.5083 2.42913 9.48387 4.47866C9.1732 5.10017 8.82959 6.21099 8.82687 6.60259L8.82624 6.69417H13.738H18.6498L18.6238 6.43979Z" fill="white"/>
</svg>
