<svg width="35" height="35" viewBox="0 0 35 35" fill="none" xmlns="http://www.w3.org/2000/svg">
<path d="M15.2527 34.877C10.7295 34.2952 6.47783 31.854 3.64547 28.2125C0.267148 23.8691 -0.859273 17.97 0.671252 12.6366C2.87341 4.96273 10.157 -0.306837 18.1182 0.0138755C20.7584 0.120231 22.9955 0.689485 25.3036 1.84224C30.3861 4.38069 33.9509 9.26353 34.8022 14.8528C35.7115 20.8232 33.444 26.9074 28.8534 30.8146C26.2825 33.0029 23.3074 34.3465 19.9464 34.8374C18.9616 34.9812 16.2415 35.0041 15.2527 34.877ZM19.8718 33.0449C27.5134 31.9026 33.216 25.2493 33.216 17.4759C33.216 8.80067 26.1503 1.77496 17.4339 1.78318C7.49578 1.79255 0.0112495 11.0893 2.11958 20.8055C3.57635 27.519 9.19936 32.5083 16.0569 33.1722C17.02 33.2654 18.7925 33.2063 19.8718 33.0449ZM20.7108 27.8659C19.438 27.6734 17.8876 26.9712 16.6607 26.0315C14.8576 24.6505 12.5467 21.6886 10.8649 18.6032C9.68718 16.4426 9.25814 15.1946 9.07639 13.4009C8.90096 11.6695 9.14287 10.247 9.79851 9.15434C10.0537 8.72915 11.1749 7.50876 11.3053 7.51432C11.3357 7.51558 12.1051 8.63709 13.0151 10.0065C14.2677 11.8916 14.6417 12.5139 14.5548 12.569C14.4917 12.609 14.1884 12.6423 13.8808 12.643C12.8221 12.6454 12.2575 13.1378 12.2604 14.0557C12.2678 16.4337 14.4794 20.3823 17.077 22.6559C18.0365 23.4957 18.5553 23.7842 19.1056 23.7842C19.6636 23.7842 20.0707 23.522 20.3894 22.9572C20.5276 22.7125 20.7307 22.4275 20.8409 22.324L21.0412 22.1359L22.5376 24.383C23.3606 25.6189 24.1013 26.7338 24.1837 26.8606L24.3334 27.0912L23.828 27.3464C22.9224 27.8035 21.6741 28.0115 20.7108 27.8659V27.8659ZM24.1811 26.5231C22.0651 23.27 21.2259 21.955 21.2518 21.9329C21.3885 21.8163 22.5297 21.436 22.8604 21.3968C23.5223 21.3184 23.678 21.4638 24.9225 23.3224C25.532 24.2326 26.0306 25.0354 26.0306 25.1065C26.0306 25.3961 25.7243 25.8436 25.1649 26.3713C24.8395 26.6783 24.5445 26.9294 24.5093 26.9294C24.4742 26.9294 24.3265 26.7466 24.1811 26.5231ZM13.2762 9.9178C12.3782 8.55354 11.6413 7.406 11.6386 7.36772C11.6312 7.25796 12.2582 6.92484 12.746 6.77952C13.3133 6.61052 13.7054 6.68286 14.0504 7.02015C14.4184 7.37992 16.1974 10.0383 16.3052 10.3895C16.4832 10.9695 15.9866 11.7902 15.1837 12.2433L14.909 12.3983L13.2762 9.9178Z" fill="black"/>
</svg>
